<svg width="317" height="595" viewBox="0 0 317 595" fill="none" xmlns="http://www.w3.org/2000/svg">
<path d="M265.889 394.433C259.276 403.222 247.001 407.343 230.095 406.978C213.219 406.615 191.96 401.779 167.73 392.941C119.283 375.271 59.1815 341.686 -1.06544 296.357C-61.3123 251.028 -110.235 202.585 -140.636 160.931C-155.841 140.098 -166.378 121.012 -171.403 104.897C-176.437 88.7538 -175.879 75.8168 -169.266 67.0276C-162.653 58.2384 -150.377 54.1174 -133.472 54.4818C-116.595 54.8456 -95.3362 59.6815 -71.1067 68.5187C-22.6599 86.1888 37.4419 119.774 97.6887 165.103C157.936 210.432 206.858 258.875 237.26 300.529C252.464 321.362 263.001 340.449 268.026 356.564C273.061 372.706 272.502 385.643 265.889 394.433Z" stroke="#FFE5D0" stroke-width="2"/>
<path d="M215.911 460.859C209.298 469.648 197.022 473.769 180.117 473.405C163.24 473.041 141.981 468.205 117.752 459.368C69.3048 441.698 9.20306 408.113 -51.0438 362.784C-111.291 317.455 -160.213 269.012 -190.615 227.357C-205.819 206.525 -216.356 187.438 -221.382 171.323C-226.416 155.18 -225.857 142.243 -219.244 133.454C-212.632 124.665 -200.356 120.544 -183.45 120.908C-166.574 121.272 -145.315 126.108 -121.085 134.945C-72.6383 152.615 -12.5365 186.2 47.7104 231.529C107.957 276.858 156.88 325.301 187.281 366.956C202.486 387.788 213.023 406.875 218.048 422.99C223.082 439.133 222.524 452.07 215.911 460.859Z" stroke="#FFE5D0" stroke-width="2"/>
<path d="M165.933 527.285C159.32 536.075 147.044 540.196 130.138 539.831C113.262 539.467 92.0027 534.632 67.7732 525.794C19.3264 508.124 -40.7753 474.539 -101.022 429.21C-161.269 383.881 -210.192 335.438 -240.593 293.784C-255.798 272.951 -266.334 253.864 -271.36 237.75C-276.394 221.607 -275.836 208.67 -269.223 199.88C-262.61 191.091 -250.334 186.97 -233.428 187.335C-216.552 187.698 -195.293 192.534 -171.063 201.372C-122.617 219.042 -62.5149 252.627 -2.26804 297.956C57.9788 343.285 106.901 391.728 137.303 433.382C152.507 454.215 163.044 473.301 168.07 489.416C173.104 505.559 172.545 518.496 165.933 527.285Z" stroke="#FFE5D0" stroke-width="2"/>
</svg>
