<svg width="77" height="86" viewBox="0 0 77 86" fill="none" xmlns="http://www.w3.org/2000/svg">
<g id="Design">
<path id="Star 4" d="M28.5 0C28.5 0 29.7443 14.912 35.9161 21.0839C42.088 27.2557 57 28.5 57 28.5C57 28.5 42.088 29.7443 35.9161 35.9161C29.7443 42.088 28.5 57 28.5 57C28.5 57 27.2557 42.088 21.0839 35.9161C14.912 29.7443 0 28.5 0 28.5C0 28.5 14.912 27.2557 21.0839 21.0839C27.2557 14.912 28.5 0 28.5 0Z" fill="black"/>
<path id="Star 5" d="M62.5 57C62.5 57 63.1331 64.5868 66.2731 67.7269C69.4132 70.8669 77 71.5 77 71.5C77 71.5 69.4132 72.1331 66.2731 75.2731C63.1331 78.4132 62.5 86 62.5 86C62.5 86 61.8669 78.4132 58.7269 75.2731C55.5868 72.1331 48 71.5 48 71.5C48 71.5 55.5868 70.8669 58.7269 67.7269C61.8669 64.5868 62.5 57 62.5 57Z" fill="black"/>
</g>
</svg>
