<svg width="29" height="30" viewBox="0 0 29 30" fill="none" xmlns="http://www.w3.org/2000/svg">
<g id="facebook" clip-path="url(#clip0_3_12825)">
<path id="Vector" d="M29 14.6637C29 6.60537 22.5076 0.0731201 14.5 0.0731201C6.48871 0.0749326 -0.00366211 6.60537 -0.00366211 14.6656C-0.00366211 21.9464 5.29971 27.982 12.2307 29.0767V18.8814H8.55134V14.6656H12.2343V11.4484C12.2343 7.79256 14.4003 5.77343 17.7117 5.77343C19.2995 5.77343 20.9579 6.058 20.9579 6.058V9.64675H19.1291C17.3293 9.64675 16.7674 10.7723 16.7674 11.9269V14.6637H20.7875L20.1459 18.8796H16.7656V29.0749C23.6966 27.9802 29 21.9446 29 14.6637Z" fill="black"/>
</g>
<defs>
<clipPath id="clip0_3_12825">
<rect width="29" height="29" fill="white" transform="translate(0 0.0749512)"/>
</clipPath>
</defs>
</svg>
