<svg width="17" height="18" viewBox="0 0 17 18" fill="none" xmlns="http://www.w3.org/2000/svg">
<g id="instagram" clip-path="url(#clip0_3_12827)">
<path id="Vector" d="M8.5 0.0749512C6.19331 0.0749512 5.90325 0.0855762 4.99694 0.125951C4.09063 0.168451 3.47331 0.310826 2.9325 0.521201C2.36522 0.734571 1.8514 1.06927 1.42694 1.50189C0.994581 1.92657 0.659926 2.44033 0.44625 3.00745C0.235875 3.5472 0.0924375 4.16558 0.051 5.0687C0.010625 5.97714 0 6.26614 0 8.57601C0 10.8838 0.010625 11.1728 0.051 12.0791C0.0935 12.9843 0.235875 13.6016 0.44625 14.1425C0.664062 14.7013 0.954125 15.1752 1.42694 15.648C1.89869 16.1208 2.37256 16.412 2.93144 16.6287C3.47331 16.8391 4.08956 16.9825 4.99481 17.024C5.90219 17.0643 6.19119 17.075 8.5 17.075C10.8088 17.075 11.0968 17.0643 12.0041 17.024C12.9083 16.9815 13.5278 16.8391 14.0686 16.6287C14.6355 16.4152 15.1489 16.0805 15.5731 15.648C16.0459 15.1752 16.3359 14.7013 16.5537 14.1425C16.7631 13.6016 16.9065 12.9843 16.949 12.0791C16.9894 11.1728 17 10.8838 17 8.57495C17 6.26614 16.9894 5.97714 16.949 5.06976C16.9065 4.16558 16.7631 3.5472 16.5537 3.00745C16.3401 2.44032 16.0054 1.92654 15.5731 1.50189C15.1487 1.06911 14.6349 0.734387 14.0675 0.521201C13.5256 0.310826 12.9073 0.167389 12.0031 0.125951C11.0957 0.0855762 10.8077 0.0749512 8.49788 0.0749512H8.50106H8.5ZM7.73819 1.60708H8.50106C10.7706 1.60708 11.0394 1.61451 11.9351 1.65595C12.7638 1.69314 13.2143 1.83233 13.5139 1.94814C13.9102 2.1022 14.1939 2.28708 14.4914 2.58458C14.7889 2.88208 14.9728 3.1647 15.1268 3.56208C15.2437 3.86064 15.3818 4.31114 15.419 5.13989C15.4604 6.03558 15.4689 6.30439 15.4689 8.57283C15.4689 10.8413 15.4604 11.1111 15.419 12.0068C15.3818 12.8356 15.2426 13.285 15.1268 13.5846C14.9905 13.9537 14.773 14.2874 14.4904 14.5611C14.1929 14.8586 13.9103 15.0424 13.5129 15.1965C13.2154 15.3133 12.7649 15.4515 11.9351 15.4897C11.0394 15.5301 10.7706 15.5396 8.50106 15.5396C6.23156 15.5396 5.96169 15.5301 5.066 15.4897C4.23725 15.4515 3.78781 15.3133 3.48819 15.1965C3.11897 15.0604 2.78495 14.8433 2.51069 14.5611C2.2278 14.287 2.00996 13.953 1.87319 13.5836C1.75738 13.285 1.61819 12.8345 1.581 12.0058C1.54063 11.1101 1.53212 10.8413 1.53212 8.5707C1.53212 6.3012 1.54063 6.03345 1.581 5.13776C1.61925 4.30901 1.75738 3.85851 1.87425 3.55889C2.02831 3.16258 2.21319 2.87889 2.51069 2.58139C2.80819 2.28389 3.09081 2.10008 3.48819 1.94601C3.78781 1.82914 4.23725 1.69101 5.066 1.65276C5.85013 1.61664 6.154 1.60601 7.73819 1.60495V1.60708ZM13.0379 3.01808C12.904 3.01808 12.7714 3.04446 12.6476 3.09572C12.5238 3.14698 12.4114 3.22211 12.3167 3.31683C12.222 3.41154 12.1468 3.52399 12.0956 3.64774C12.0443 3.77149 12.0179 3.90413 12.0179 4.03808C12.0179 4.17202 12.0443 4.30466 12.0956 4.42841C12.1468 4.55217 12.222 4.66461 12.3167 4.75933C12.4114 4.85404 12.5238 4.92917 12.6476 4.98043C12.7714 5.03169 12.904 5.05808 13.0379 5.05808C13.3085 5.05808 13.5679 4.95061 13.7592 4.75933C13.9505 4.56804 14.0579 4.3086 14.0579 4.03808C14.0579 3.76756 13.9505 3.50811 13.7592 3.31683C13.5679 3.12554 13.3085 3.01808 13.0379 3.01808ZM8.50106 4.2102C7.92208 4.20117 7.34707 4.3074 6.80954 4.52273C6.272 4.73805 5.78267 5.05815 5.37004 5.4644C4.9574 5.87065 4.6297 6.35493 4.40602 6.88904C4.18234 7.42315 4.06714 7.99642 4.06714 8.57548C4.06714 9.15454 4.18234 9.72781 4.40602 10.2619C4.6297 10.796 4.9574 11.2803 5.37004 11.6866C5.78267 12.0928 6.272 12.4129 6.80954 12.6282C7.34707 12.8436 7.92208 12.9498 8.50106 12.9408C9.64701 12.9229 10.74 12.4551 11.544 11.6384C12.3481 10.8217 12.7988 9.72157 12.7988 8.57548C12.7988 7.42939 12.3481 6.32926 11.544 5.51256C10.74 4.69586 9.64701 4.22808 8.50106 4.2102ZM8.50106 5.74126C9.2526 5.74126 9.97336 6.03981 10.5048 6.57123C11.0362 7.10265 11.3348 7.82341 11.3348 8.57495C11.3348 9.32649 11.0362 10.0473 10.5048 10.5787C9.97336 11.1101 9.2526 11.4086 8.50106 11.4086C7.74952 11.4086 7.02876 11.1101 6.49734 10.5787C5.96592 10.0473 5.66738 9.32649 5.66738 8.57495C5.66738 7.82341 5.96592 7.10265 6.49734 6.57123C7.02876 6.03981 7.74952 5.74126 8.50106 5.74126Z" fill="white"/>
</g>
<defs>
<clipPath id="clip0_3_12827">
<rect width="17" height="17" fill="white" transform="translate(0 0.0749512)"/>
</clipPath>
</defs>
</svg>
