<svg width="92" height="15" viewBox="0 0 92 15" fill="none" xmlns="http://www.w3.org/2000/svg">
<path opacity="0.9" d="M12.3 14.3994C9.39333 14.3994 7.05333 14.1461 5.28 13.6394C3.50667 13.1194 2.21333 12.3594 1.4 11.3594C0.6 10.3461 0.2 9.09272 0.2 7.59939C0.2 6.10606 0.6 4.85939 1.4 3.85939C2.21333 2.84606 3.50667 2.08606 5.28 1.57939C7.05333 1.05939 9.39333 0.799389 12.3 0.799389C15.2067 0.799389 17.5467 1.05939 19.32 1.57939C21.0933 2.08606 22.38 2.84606 23.18 3.85939C23.9933 4.85939 24.4 6.10606 24.4 7.59939C24.4 9.09272 23.9933 10.3461 23.18 11.3594C22.38 12.3594 21.0933 13.1194 19.32 13.6394C17.5467 14.1461 15.2067 14.3994 12.3 14.3994ZM12.3 10.5994C13.6733 10.5994 14.86 10.5194 15.86 10.3594C16.86 10.1861 17.6333 9.88606 18.18 9.45939C18.7267 9.01939 19 8.39939 19 7.59939C19 6.79939 18.7267 6.18606 18.18 5.75939C17.6333 5.31939 16.86 5.01939 15.86 4.85939C14.86 4.68606 13.6733 4.59939 12.3 4.59939C10.9267 4.59939 9.72 4.68606 8.68 4.85939C7.65333 5.01939 6.84667 5.31939 6.26 5.75939C5.68667 6.18606 5.4 6.79939 5.4 7.59939C5.4 8.39939 5.68667 9.01939 6.26 9.45939C6.84667 9.88606 7.65333 10.1861 8.68 10.3594C9.72 10.5194 10.9267 10.5994 12.3 10.5994ZM44.6616 13.9994H39.8616V4.19939H44.6616V13.9994ZM40.0616 8.93939L40.1016 9.89939C40.0616 10.1794 39.9282 10.5061 39.7016 10.8794C39.4882 11.2527 39.1882 11.6394 38.8016 12.0394C38.4149 12.4394 37.9416 12.8127 37.3816 13.1594C36.8216 13.4927 36.1816 13.7661 35.4616 13.9794C34.7416 14.1927 33.9416 14.2994 33.0616 14.2994C32.1816 14.2994 31.3482 14.2061 30.5616 14.0194C29.7749 13.8461 29.0749 13.5527 28.4616 13.1394C27.8482 12.7261 27.3682 12.1727 27.0216 11.4794C26.6749 10.7727 26.5016 9.89272 26.5016 8.83939V4.19939H31.3016V8.33939C31.3016 9.07272 31.4216 9.63939 31.6616 10.0394C31.9149 10.4394 32.3082 10.7194 32.8416 10.8794C33.3749 11.0261 34.0616 11.0994 34.9016 11.0994C35.6882 11.0994 36.4149 10.9861 37.0816 10.7594C37.7616 10.5194 38.3549 10.2327 38.8616 9.89939C39.3816 9.56606 39.7816 9.24606 40.0616 8.93939ZM45.9625 4.19939H57.7225V7.19939H45.9625V4.19939ZM49.4425 1.19939H54.2425V13.9994H49.4425V1.19939ZM70.5211 7.79939V4.79939H77.4811V7.79939H70.5211ZM73.4011 4.79939H78.2011V13.9994H73.4011V4.79939ZM61.7811 13.9994V3.79939L66.5811 4.79939V13.9994H61.7811ZM66.5811 0.199389H78.2011V3.39939H68.5811C68.0478 3.38606 67.6344 3.41272 67.3411 3.47939C67.0611 3.54606 66.8611 3.67939 66.7411 3.87939C66.6344 4.07939 66.5811 4.38606 66.5811 4.79939L61.7811 3.79939C61.7811 2.99939 61.9278 2.33272 62.2211 1.79939C62.5278 1.26606 63.0278 0.866056 63.7211 0.599389C64.4278 0.332722 65.3811 0.199389 66.5811 0.199389ZM58.5211 4.79939H71.2011V7.79939H58.5211V4.79939ZM79.693 4.19939H91.453V7.19939H79.693V4.19939ZM83.173 1.19939H87.973V13.9994H83.173V1.19939Z" fill="black"/>
</svg>
