<svg width="112" height="40" viewBox="0 0 112 40" fill="none" xmlns="http://www.w3.org/2000/svg">
<rect width="112" height="40" fill="white" fill-opacity="0.01"/>
<g clipPath="url(#clip0_108_12386)">
<rect width="96" height="30" transform="translate(0 5)" fill="white" fill-opacity="0.01"/>
<path d="M6.86 16.66C6.86 16.66 8.6 16.78 10.76 16.92C11.74 17 12.82 17.08 13.86 17.16C15.26 17.28 16.36 18.46 16.36 19.88V21.02C16.36 23.38 14.44 25.3 12.06 25.3H4.74C2.38 25.3 0.8 23.38 0.8 21.02V19.72H6.58C6.58 19.72 6.5 20.24 7.44 20.24H10.08C10.68 20.24 10.84 19.36 10.28 19.26C10.28 19.26 8.5 19.12 6.38 18.92C5.34 18.82 4.22 18.72 3.22 18.6C1.84 18.44 0.78 17.28 0.8 15.9V14.92C0.78 13.78 1.24 12.68 2.04 11.88C2.86 11.08 3.94 10.62 5.08 10.62H11.36C13.82 10.76 16.36 11.1 16.36 16.2H10.58C10.58 16.2 10.64 15.7 9.7 15.7H7.06C6.46 15.7 6.3 16.56 6.86 16.66ZM27.488 11H32.928V25.02H27.488V20.02H23.408V25.02H17.968V11H23.408V15.44H27.488V11ZM45.85 10.6C48.21 10.6 50.15 12.52 50.15 14.9V21.02C50.15 23.38 48.21 25.32 45.85 25.32H38.85C37.71 25.32 36.61 24.86 35.79 24.06C34.99 23.24 34.53 22.16 34.55 21.02V14.9C34.53 13.76 34.99 12.66 35.79 11.86C36.61 11.06 37.69 10.6 38.85 10.6H45.85ZM44.53 19.46V16.46C44.53 15.68 43.89 15.04 43.11 15.04H41.57C40.79 15.04 40.15 15.68 40.15 16.46V19.46C40.15 20.24 40.79 20.88 41.57 20.88H43.11C43.89 20.88 44.53 20.24 44.53 19.46ZM60.817 11.02C63.557 11.02 66.197 12.1 66.197 14.74C66.197 19.86 59.217 19.46 59.217 19.46H56.717V25H51.757V11.02H60.817ZM60.557 16.74C60.757 16.56 60.817 16.26 60.717 16.02C60.597 15.76 60.357 15.6 60.097 15.6H56.717V16.94H60.097C60.257 16.94 60.437 16.88 60.557 16.74ZM72.4891 19.64H81.9091V25.04H67.0891V11H72.4891V19.64ZM89.5558 11H95.3558L90.3758 19.48V25H84.8758V19.48L79.9158 11H85.6958L87.6358 14.7L89.5558 11Z" fill="black"/>
</g>
<defs>
<clipPath id="clip0_108_12386">
<rect width="96" height="30" fill="white" transform="translate(0 5)"/>
</clipPath>
</defs>
</svg>
