<svg width="19" height="20" viewBox="0 0 19 20" fill="none" xmlns="http://www.w3.org/2000/svg">
<g id="snapchat" clip-path="url(#clip0_3_12829)">
<path id="Vector" d="M18.9323 13.7621C18.8005 13.4023 18.5488 13.2099 18.2626 13.0508C18.2152 13.0231 18.1664 12.9977 18.1165 12.9748L17.8564 12.843C16.9634 12.3691 16.2664 11.7718 15.7831 11.0641C15.6456 10.865 15.5264 10.654 15.4268 10.4335C15.3864 10.3148 15.3888 10.2483 15.4173 10.1877C15.4471 10.1405 15.4863 10.1001 15.5325 10.069C15.6857 9.96683 15.8436 9.86351 15.9505 9.79464C16.1429 9.67114 16.2937 9.57258 16.3911 9.5037C16.758 9.2472 17.0145 8.97408 17.1748 8.67008C17.2865 8.4598 17.3517 8.22794 17.3658 7.99025C17.38 7.75256 17.3428 7.51461 17.2568 7.29258C17.0133 6.6537 16.4101 6.25708 15.6786 6.25708C15.4832 6.25668 15.2887 6.28264 15.1003 6.33426C15.1074 5.89726 15.0979 5.43533 15.0587 4.9817C14.9209 3.3857 14.3616 2.5497 13.7798 1.88233C13.4067 1.46455 12.9674 1.11109 12.4794 0.836139C11.5948 0.331451 10.5925 0.0749512 9.49882 0.0749512C8.40632 0.0749512 7.40882 0.331451 6.52413 0.836139C6.03488 1.11164 5.59551 1.46551 5.22145 1.8847C4.63957 2.55208 4.08145 3.38926 3.94251 4.98408C3.90332 5.4377 3.89501 5.90083 3.89976 6.33545C3.71133 6.28384 3.51681 6.25788 3.32145 6.25826C2.59113 6.25826 1.9867 6.65608 1.74445 7.29495C1.65799 7.517 1.62034 7.75507 1.63407 7.99296C1.6478 8.23086 1.71258 8.46301 1.82401 8.67364C1.98551 8.97764 2.24201 9.25076 2.60776 9.50608C2.70513 9.57495 2.85713 9.67233 3.04832 9.7982L3.45088 10.0606C3.50254 10.0948 3.5466 10.1393 3.58032 10.1913C3.6112 10.2542 3.61238 10.3219 3.56607 10.449C3.46786 10.6648 3.35063 10.8714 3.21576 11.0665C2.74313 11.7588 2.06626 12.3454 1.20176 12.8145C0.744573 13.0567 0.268385 13.2182 0.0676976 13.7645C-0.0843024 14.1777 0.0154476 14.6468 0.400198 15.041C0.54151 15.1895 0.705385 15.3141 0.885885 15.4091C1.26093 15.6152 1.65971 15.7747 2.07339 15.8841C2.15879 15.906 2.23988 15.9422 2.31326 15.991C2.45338 16.1145 2.43438 16.2998 2.62082 16.5705C2.71463 16.7106 2.83457 16.8318 2.97232 16.9268C3.3642 17.1987 3.80476 17.2153 4.27263 17.2331C4.6942 17.2498 5.17276 17.2688 5.71782 17.4469C5.94345 17.5229 6.17976 17.6678 6.4517 17.8364C7.10482 18.2378 8.00138 18.7888 9.49882 18.7888C10.9974 18.7888 11.8976 18.2354 12.5578 17.8316C12.8274 17.6654 13.0613 17.5229 13.281 17.4505C13.8273 17.27 14.3058 17.251 14.7274 17.2355C15.1941 17.2177 15.6346 17.1999 16.0277 16.9291C16.1913 16.8147 16.3275 16.6654 16.4267 16.4921C16.5621 16.2641 16.5573 16.1038 16.6844 15.9934C16.7533 15.9465 16.8295 15.9116 16.91 15.8901C17.3296 15.7802 17.734 15.6191 18.1141 15.4103C18.3041 15.307 18.4775 15.1728 18.6236 15.0113L18.6283 15.0054C18.9893 14.6195 19.0796 14.1635 18.9323 13.7621ZM17.6011 14.477C16.7889 14.9258 16.2486 14.8771 15.8282 15.1479C15.4719 15.3771 15.6833 15.8723 15.4244 16.0504C15.105 16.2713 14.1645 16.0361 12.9485 16.4375C11.9451 16.7688 11.305 17.7224 9.5012 17.7224C7.69738 17.7224 7.07276 16.7712 6.0527 16.4351C4.83907 16.0338 3.8962 16.2689 3.57795 16.0492C3.31907 15.8711 3.52926 15.3747 3.17301 15.1455C2.75263 14.8748 2.21232 14.9235 1.40126 14.477C0.88351 14.192 1.17682 14.0138 1.34901 13.9307C4.29163 12.5069 4.7607 10.3088 4.78088 10.145C4.80701 9.94783 4.83432 9.79226 4.61701 9.59158C4.40682 9.39683 3.47463 8.8197 3.21576 8.6392C2.78826 8.33995 2.59826 8.04189 2.73838 7.67495C2.83576 7.42083 3.07207 7.32464 3.32026 7.32464C3.39895 7.32499 3.47737 7.33375 3.5542 7.35076C4.02445 7.45289 4.48045 7.6892 4.74407 7.75214C4.77613 7.76045 4.8082 7.76401 4.84145 7.7652C4.98157 7.7652 5.03145 7.69395 5.02195 7.53364C4.99107 7.01945 4.91863 6.0172 4.99938 5.08026C5.11101 3.79301 5.52663 3.15414 6.01945 2.59008C6.25695 2.31814 7.36963 1.14133 9.49882 1.14133C11.6268 1.14133 12.7431 2.31339 12.9794 2.58414C13.4734 3.1482 13.889 3.78708 13.9994 5.07551C14.0802 6.01126 14.0101 7.01351 13.9769 7.5277C13.965 7.69633 14.0173 7.75926 14.1574 7.75926C14.1902 7.75916 14.2229 7.75518 14.2548 7.74739C14.5184 7.68326 14.9756 7.44695 15.4446 7.34601C15.5214 7.32843 15.5998 7.31927 15.6786 7.3187C15.9279 7.3187 16.1643 7.41608 16.2604 7.66901C16.3994 8.03595 16.2129 8.33401 15.7843 8.63326C15.5254 8.81376 14.5932 9.39089 14.383 9.58564C14.1645 9.78633 14.193 9.94189 14.2179 10.139C14.2393 10.3053 14.7084 12.5033 17.6498 13.926C17.8244 14.0126 18.1177 14.1896 17.6011 14.477Z" fill="white"/>
</g>
<defs>
<clipPath id="clip0_3_12829">
<rect width="19" height="19" fill="white" transform="translate(0 0.0749512)"/>
</clipPath>
</defs>
</svg>
